<svg width="16" height="16" viewBox="0 0 16 16" fill="none" xmlns="http://www.w3.org/2000/svg">
	<path fill-rule="evenodd" clip-rule="evenodd"
		d="M6.06244 8.92456C6.59121 8.54001 7.33291 8.91725 7.33295 9.57104V13.7634C7.33295 14.1148 7.04851 14.3999 6.69721 14.4001H6.54194C5.54126 14.4001 4.61146 13.8844 4.081 13.0359C3.43477 12.0019 3.69747 10.6437 4.68354 9.92651L6.06244 8.92456ZM7.83198 10.1394C7.76349 9.4893 8.46112 9.03616 9.02729 9.36304L12.6581 11.4587C12.9625 11.6345 13.0663 12.0245 12.8906 12.3289L12.8134 12.4626C12.313 13.3293 11.4015 13.8768 10.4013 13.9119C9.18272 13.9545 8.13872 13.0473 8.01069 11.8347L7.83198 10.1394ZM1.67963 7.12378C2.25192 6.04731 3.55876 5.59646 4.6728 6.09155L6.23139 6.78491C6.82837 7.05079 6.87169 7.88094 6.30561 8.20776L2.67475 10.3044C2.37048 10.4799 1.98137 10.3761 1.80561 10.072L1.72846 9.93726C1.22816 9.07053 1.20988 8.00745 1.67963 7.12378ZM13.3251 5.69604C13.6295 5.52045 14.0186 5.62414 14.1943 5.92847L14.2714 6.06226C14.7719 6.92903 14.7901 7.99295 14.3203 8.87671C13.7478 9.95317 12.4402 10.4033 11.3261 9.90796L9.7685 9.21558C9.17141 8.94984 9.12745 8.11873 9.6933 7.79175L13.3251 5.69604ZM9.45795 1.60034C10.4587 1.60044 11.3885 2.11597 11.9189 2.9646C12.565 3.99844 12.3021 5.35573 11.3164 6.073L9.93744 7.07593C9.40877 7.46042 8.66722 7.08304 8.66694 6.42944V2.23608C8.66715 1.88488 8.95146 1.60049 9.30268 1.60034H9.45795ZM5.59858 2.08765C6.81713 2.045 7.86114 2.95225 7.9892 4.16479L8.16791 5.86011C8.23656 6.51029 7.53882 6.96426 6.9726 6.63745L3.34174 4.54077C3.0374 4.36502 2.93359 3.976 3.10932 3.67163L3.18647 3.53784C3.6869 2.67107 4.59833 2.12267 5.59858 2.08765Z"
		fill="#242424" />
</svg>