<svg width="24" height="24" viewBox="0 0 24 24" fill="none" xmlns="http://www.w3.org/2000/svg">
	<path fill-rule="evenodd" clip-rule="evenodd"
		d="M10.0942 13.3857C10.8873 12.8092 11.9994 13.3758 11.9994 14.3564V20.6455C11.9994 21.1726 11.5725 21.5996 11.0453 21.5996H10.8129C9.31174 21.5995 7.91619 20.8267 7.12054 19.5537C6.15122 18.0028 6.54683 15.9664 8.02581 14.8906L10.0942 13.3857ZM12.2475 14.3438C12.1445 13.3686 13.1912 12.6877 14.0405 13.1777L19.4868 16.3223C19.9433 16.5859 20.1 17.1704 19.8364 17.627L19.7201 17.8271C18.9695 19.1273 17.6023 19.9494 16.102 20.002C14.2742 20.066 12.7082 18.7055 12.516 16.8867L12.2475 14.3438ZM3.01898 11.5518C3.87749 9.93676 5.83895 9.26078 7.51019 10.0039L9.84613 11.043C10.7422 11.4414 10.8087 12.6883 9.95941 13.1787L4.51312 16.3223C4.05659 16.5858 3.47207 16.4301 3.20843 15.9736L3.09222 15.7725C2.34165 14.4724 2.31442 12.8773 3.01898 11.5518ZM19.4868 7.67773C19.9433 7.41414 20.5278 7.56984 20.7914 8.02637L20.9067 8.22754C21.6573 9.5276 21.6854 11.1227 20.9809 12.4482C20.1224 14.0632 18.1609 14.7392 16.4897 13.9961L14.1528 12.957C13.2571 12.5583 13.1913 11.3116 14.0405 10.8213L19.4868 7.67773ZM7.89788 3.99805C9.72576 3.93407 11.2918 5.2944 11.4838 7.11328L11.7524 9.65625C11.8554 10.6315 10.8087 11.3115 9.95941 10.8213L4.51312 7.67676C4.05654 7.41315 3.89991 6.82962 4.16351 6.37305L4.27972 6.17188C5.03042 4.87194 6.39766 4.05058 7.89788 3.99805ZM13.1869 2.40039C14.6881 2.40054 16.0837 3.17331 16.8793 4.44629C17.8486 5.99715 17.4529 8.03354 15.9741 9.10938L13.9057 10.6143C13.1126 11.191 11.9995 10.6242 11.9994 9.64355V3.35449C11.9995 2.82733 12.4274 2.40039 12.9545 2.40039H13.1869Z"
		fill="#06B8EA" />
</svg>