<svg width="73" height="37" viewBox="0 0 73 37" fill="none" xmlns="http://www.w3.org/2000/svg">
	<g clip-path="url(#clip0_97_976)">
		<path
			d="M0.428214 21.3273C-1.09819 25.7918 1.63661 30.2563 5.77062 31.8739C9.84103 33.4268 13.9114 31.8092 17.155 29.1564C20.3987 26.5036 23.4514 22.9449 26.377 19.7097C29.5571 16.1511 32.7371 12.5277 35.7898 8.83961C33.2459 7.35144 30.7018 5.86328 28.1578 4.31041C25.5502 11.9453 23.7059 22.4273 31.9103 27.4741C40.1147 32.521 49.1459 24.886 54.7427 19.645L47.1107 17.5745C48.1283 23.9155 55.3787 26.8918 60.9755 25.0801C66.6359 23.2684 73.1867 16.7981 72.996 10.3278C72.8051 4.0516 66.2543 0.428214 60.7847 0.0399961C55.3151 -0.348223 49.5911 2.1105 46.2839 6.5103C42.9767 10.9101 44.3759 11.1043 46.2839 13.0453C48.1919 14.9864 51.1811 15.0511 52.7075 13.0453C55.3151 9.61606 59.8943 7.99846 63.5831 10.5219C67.272 13.0453 63.7739 10.9101 63.8375 10.716C63.7739 11.2983 63.0743 12.2042 62.7564 12.6571C61.9931 13.7571 60.9755 14.7276 59.8944 15.4393C58.8131 16.1511 56.2691 17.1863 55.9511 15.1158C55.3787 11.4924 50.6087 10.9748 48.3191 13.0453C46.0295 15.1158 44.4395 16.3452 42.2134 17.7039C39.9875 19.0627 38.2067 20.4862 36.4894 19.4509C32.7371 17.1863 35.9171 9.68077 36.9347 6.76913C38.3974 2.49873 32.2282 -1.25405 29.3027 2.23992C25.2959 7.02795 21.2255 11.6866 16.9642 16.2805C15.1834 18.1568 13.4662 20.3568 11.431 21.9097C9.39581 23.4625 9.52301 22.686 8.88704 23.139C8.25098 23.5919 8.63265 22.9449 8.63265 22.9449C8.75984 22.6861 9.01423 24.0448 9.14143 23.6566C11.0494 18.0274 2.27262 15.5687 0.36461 21.1979L0.428214 21.3273Z"
			fill="#06B8EA" />
		<path
			d="M64.8483 28.2331L51.7966 29.3949C49.8021 29.5724 48.3254 31.3468 48.4984 33.3581C48.6714 35.3694 50.4284 36.856 52.4229 36.6785L65.4747 35.5168C67.4693 35.3393 68.9459 33.5648 68.7729 31.5535C68.6 29.5422 66.8429 28.0556 64.8483 28.2331Z"
			fill="#7AB929" />
	</g>
	<defs>
		<clipPath id="clip0_97_976">
			<rect width="73" height="37" fill="white" />
		</clipPath>
	</defs>
</svg>