<svg width="1920" height="900" viewBox="0 0 1920 900" fill="none" xmlns="http://www.w3.org/2000/svg">
	<g opacity="0.4">
		<path
			d="M-172.555 543.954C-220.48 684.977 -134.615 826 -4.81847 877.097C122.981 926.15 250.78 875.053 352.62 791.256C454.462 707.459 550.31 595.048 642.166 492.857C742.01 380.446 841.854 265.993 937.702 149.494C857.829 102.486 777.952 55.4778 698.079 6.4259C616.207 247.596 558.299 578.698 815.895 738.115C1073.49 897.535 1357.05 656.363 1532.77 490.813L1293.15 425.41C1325.09 625.707 1552.74 719.721 1728.46 662.495C1906.18 605.268 2111.86 400.884 2105.87 196.502C2099.88 -1.74912 1894.2 -116.204 1722.47 -128.467C1550.74 -140.73 1371.02 -63.0644 1267.19 75.9157C1163.35 214.896 1207.28 221.029 1267.19 282.343C1327.09 343.658 1420.95 345.702 1468.87 282.343C1550.74 174.02 1694.52 122.923 1810.33 202.634C1926.15 282.343 1816.33 214.896 1818.32 208.764C1816.33 227.158 1794.36 255.773 1784.38 270.079C1760.41 304.825 1728.46 335.481 1694.52 357.964C1660.57 380.446 1580.7 413.149 1570.71 347.746C1552.74 233.29 1402.97 216.94 1331.09 282.343C1259.2 347.746 1209.28 386.578 1139.39 429.499C1069.5 472.419 1013.58 517.383 959.668 484.681C841.854 413.148 941.698 176.064 973.647 84.0918C1019.57 -50.801 825.878 -169.343 734.023 -58.9763C608.22 92.267 480.421 239.423 346.631 384.534C290.718 443.805 236.802 513.295 172.902 562.348C109.003 611.398 112.996 586.872 93.0284 601.18C73.0582 615.486 85.0414 595.048 85.0414 595.048C89.0349 586.874 97.022 629.792 101.016 617.53C160.921 439.716 -114.646 362.052 -174.552 539.866L-172.555 543.954Z"
			fill="white" />
		<path
			d="M1850.06 762.095L1440.27 798.791C1377.65 804.399 1331.29 860.449 1336.72 923.982C1342.15 987.514 1397.32 1034.47 1459.94 1028.87L1869.73 992.169C1932.35 986.562 1978.71 930.512 1973.28 866.979C1967.85 803.446 1912.69 756.487 1850.06 762.095Z"
			fill="white" />
	</g>
</svg>