<svg width="806" height="408" viewBox="0 0 806 408" fill="none" xmlns="http://www.w3.org/2000/svg">
<g opacity="0.4">
<path d="M4.72795 236.907C-12.1252 286.498 18.07 336.09 63.7139 354.059C108.656 371.309 153.597 353.34 189.41 323.872C225.224 294.405 258.929 254.874 291.231 218.938C326.342 179.408 361.453 139.159 395.159 98.1914C367.071 81.6606 338.982 65.1299 310.893 47.8804C282.103 132.69 261.739 249.125 352.324 305.185C442.91 361.246 542.625 276.436 604.419 218.219L520.154 195.22C531.389 265.656 611.441 298.717 673.236 278.592C735.733 258.468 808.061 186.595 805.955 114.722C803.848 45.0056 731.52 4.75665 671.13 0.444281C610.739 -3.8681 547.54 23.4436 511.025 72.3171C474.51 121.191 489.959 123.347 511.025 144.909C532.091 166.471 565.095 167.19 581.949 144.909C610.74 106.816 661.298 88.8477 702.027 116.879C742.756 144.909 704.134 121.191 704.836 119.034C704.134 125.503 696.409 135.565 692.899 140.596C684.472 152.815 673.237 163.595 661.299 171.502C649.361 179.408 621.273 190.908 617.761 167.908C611.441 127.659 558.775 121.91 533.496 144.909C508.216 167.908 490.66 181.564 466.083 196.657C441.506 211.751 421.844 227.563 402.883 216.063C361.453 190.908 396.564 107.535 407.799 75.1923C423.95 27.7561 355.835 -13.9301 323.534 24.8812C279.294 78.0672 234.352 129.816 187.304 180.845C167.642 201.688 148.682 226.125 126.211 243.375C103.74 260.624 105.144 251.999 98.1226 257.031C91.0999 262.061 95.3139 254.874 95.3139 254.874C96.7182 252 99.527 267.092 100.931 262.78C121.998 200.251 25.0922 172.939 4.02569 235.469L4.72795 236.907Z" fill="#F8F8F8"/>
<path d="M715.997 313.618L571.892 326.522C549.87 328.494 533.566 348.204 535.476 370.546C537.386 392.888 556.786 409.402 578.808 407.43L722.913 394.525C744.936 392.553 761.239 372.843 759.33 350.501C757.42 328.159 738.02 311.646 715.997 313.618Z" fill="#F8F8F8"/>
</g>
</svg>
